# xmcd
#
# Track frame offsets:
#	150
#	19211
#	40915
#	58822
#	74029
#	88960
#	99957
#	111432
#	128731
#	152115
#	164485
#	186749
#	203995
#
# Disc length: 2910 seconds
#
# Revision: 0
# Processed by: cddbd v1.5.1PL2 Copyright (c) Steve Scherf et al.
# Submitted via: audiograbber 1.82.01
#
DISCID=c70b5c0d
DTITLE=Σύννεφα Με Παντελόνια - ΤΙΠΟΤΑ ΔΕΝ ΚΡΥΒΕΤΑΙ ΑΠ' ΤΟΝ ΗΛΙΟ
DYEAR=2000
DGENRE=
TTITLE0=Δωσ' μου ένα λόγο
TTITLE1=Σύννεφα με παντελόνια (heartbeat city)
TTITLE2=Βυθίζομαι σ' αυτό που μισώ
TTITLE3=Ασπρόμαυρη ζωή
TTITLE4=’χρωμη νύχτα
TTITLE5=Τίποτα δεν κρύβεται κάτω απ' τον ήλιο
TTITLE6=Μικρέ μου καθρέφτη
TTITLE7=Η βροχή
TTITLE8=Ταξίδεψε με
TTITLE9=’γρια κυκλάμινα
TTITLE10=Σ' ό, τι αγαπάς
TTITLE11=Τρέχω πιό γρήγορα απ' το φως
TTITLE12=Θέλω απόψε πάλι να σε δω
EXTD=
EXTT0=
EXTT1=
EXTT2=
EXTT3=
EXTT4=
EXTT5=
EXTT6=
EXTT7=
EXTT8=
EXTT9=
EXTT10=
EXTT11=
EXTT12=
PLAYORDER=
